<svg width="24" height="24" viewBox="0 0 24 24" fill="none" xmlns="http://www.w3.org/2000/svg">
<path fill-rule="evenodd" clip-rule="evenodd" d="M15.0983 7.10294C14.3745 7.27043 13.7054 7.63777 13.1716 8.17157C12.4214 8.92172 12 9.93913 12 11C12 12.4608 10.4287 14 8 14C5.57131 14 4 12.4608 4 11C4 10.4477 3.55228 10 3 10C2.44772 10 2 10.4477 2 11C2 13.3869 2.94821 15.6761 4.63604 17.364C6.32387 19.0518 8.61305 20 11 20C13.3869 20 15.6761 19.0518 17.364 17.364C19.0518 15.6761 20 13.3869 20 11C20 9.93913 19.5786 8.92172 18.8284 8.17157C18.3585 7.70161 17.7836 7.36067 17.1589 7.17155C17.3171 6.74661 17.5894 6.32479 17.9571 5.95711C18.5668 5.34745 19.3252 5 20 5C20.5523 5 21 4.55228 21 4C21 3.44772 20.5523 3 20 3C18.6748 3 17.4332 3.65255 16.5429 4.54289C15.8571 5.22865 15.3125 6.12273 15.0983 7.10294ZM5.75285 15.6333C5.84842 15.7415 5.94757 15.8471 6.05025 15.9497C7.36301 17.2625 9.14348 18 11 18C12.8565 18 14.637 17.2625 15.9497 15.9497C17.2625 14.637 18 12.8565 18 11C18 10.4696 17.7893 9.96086 17.4142 9.58579C17.0391 9.21071 16.5304 9 16 9C15.4696 9 14.9609 9.21071 14.5858 9.58579C14.2107 9.96086 14 10.4696 14 11C14 13.9592 11.0933 16 8 16C7.22498 16 6.46167 15.8719 5.75285 15.6333Z" fill="#1F1F1F"/>
<path fill-rule="evenodd" clip-rule="evenodd" d="M15.0983 7.10294C14.3745 7.27043 13.7054 7.63777 13.1716 8.17157C12.4214 8.92172 12 9.93913 12 11C12 12.4608 10.4287 14 8 14C5.57131 14 4 12.4608 4 11C4 10.4477 3.55228 10 3 10C2.44772 10 2 10.4477 2 11C2 13.3869 2.94821 15.6761 4.63604 17.364C6.32387 19.0518 8.61305 20 11 20C13.3869 20 15.6761 19.0518 17.364 17.364C19.0518 15.6761 20 13.3869 20 11C20 9.93913 19.5786 8.92172 18.8284 8.17157C18.3585 7.70161 17.7836 7.36067 17.1589 7.17155C17.3171 6.74661 17.5894 6.32479 17.9571 5.95711C18.5668 5.34745 19.3252 5 20 5C20.5523 5 21 4.55228 21 4C21 3.44772 20.5523 3 20 3C18.6748 3 17.4332 3.65255 16.5429 4.54289C15.8571 5.22865 15.3125 6.12273 15.0983 7.10294ZM5.75285 15.6333C5.84842 15.7415 5.94757 15.8471 6.05025 15.9497C7.36301 17.2625 9.14348 18 11 18C12.8565 18 14.637 17.2625 15.9497 15.9497C17.2625 14.637 18 12.8565 18 11C18 10.4696 17.7893 9.96086 17.4142 9.58579C17.0391 9.21071 16.5304 9 16 9C15.4696 9 14.9609 9.21071 14.5858 9.58579C14.2107 9.96086 14 10.4696 14 11C14 13.9592 11.0933 16 8 16C7.22498 16 6.46167 15.8719 5.75285 15.6333Z" fill="black" fill-opacity="0.2"/>
</svg>
